<svg width="305" height="17" viewBox="0 0 305 17" fill="none" xmlns="http://www.w3.org/2000/svg">
<path d="M30.509 11.198C29.8857 11.198 29.354 11.0733 28.914 10.824C28.4813 10.5747 28.1513 10.2447 27.924 9.834C27.6967 9.416 27.583 8.96867 27.583 8.492H28.848C28.848 8.8 28.9177 9.075 29.057 9.317C29.1963 9.55167 29.3907 9.73867 29.64 9.878C29.8893 10.0173 30.1827 10.087 30.52 10.087C30.8573 10.087 31.1507 10.0173 31.4 9.878C31.6567 9.73867 31.8547 9.54433 31.994 9.295C32.1333 9.04567 32.203 8.76333 32.203 8.448C32.203 8.13267 32.1333 7.85033 31.994 7.601C31.862 7.35167 31.6677 7.15367 31.411 7.007C31.1617 6.853 30.8647 6.776 30.52 6.776C30.256 6.776 29.9957 6.82733 29.739 6.93C29.4823 7.02533 29.2807 7.15733 29.134 7.326H27.924L28.331 2.97H32.764V4.081H28.98L29.387 3.685L29.101 6.633L28.771 6.534C28.9837 6.29933 29.244 6.11233 29.552 5.973C29.86 5.82633 30.2267 5.753 30.652 5.753C31.2607 5.753 31.7703 5.87767 32.181 6.127C32.599 6.37633 32.918 6.70267 33.138 7.106C33.358 7.502 33.468 7.92733 33.468 8.382V8.525C33.468 8.97967 33.3543 9.41233 33.127 9.823C32.8997 10.2263 32.566 10.5563 32.126 10.813C31.686 11.0697 31.147 11.198 30.509 11.198ZM34.5117 9.218V7.722L37.7457 2.761L38.7027 3.454L35.7657 7.975L35.8757 8.184H40.9467V9.218H34.5117ZM38.7137 11V5.28H39.9237V11H38.7137ZM42.2705 11V2.97H43.5575V7.711H43.2935C43.2935 7.12433 43.3668 6.622 43.5135 6.204C43.6675 5.77867 43.8985 5.456 44.2065 5.236C44.5218 5.00867 44.9178 4.895 45.3945 4.895H45.4495C46.1462 4.895 46.6705 5.12967 47.0225 5.599C47.3818 6.06833 47.5615 6.743 47.5615 7.623V11H46.2745V7.436C46.2745 7.01067 46.1498 6.677 45.9005 6.435C45.6585 6.18567 45.3432 6.061 44.9545 6.061C44.5365 6.061 44.1992 6.20033 43.9425 6.479C43.6858 6.75767 43.5575 7.12433 43.5575 7.579V11H42.2705ZM49.4596 11V5.071H50.4826V7.546H50.4386C50.4386 6.69533 50.6256 6.061 50.9996 5.643C51.3736 5.21767 51.9273 5.005 52.6606 5.005H52.8696V6.138H52.4736C51.9163 6.138 51.4873 6.28833 51.1866 6.589C50.8933 6.88233 50.7466 7.304 50.7466 7.854V11H49.4596Z" fill="#1D1C1C"/>
<path d="M16.5 8.5C16.5 9.55057 16.2931 10.5909 15.891 11.5615C15.489 12.5321 14.8997 13.414 14.1569 14.1569C13.414 14.8997 12.5321 15.489 11.5615 15.891C10.5909 16.2931 9.55057 16.5 8.5 16.5C7.44942 16.5 6.40914 16.2931 5.43853 15.891C4.46793 15.489 3.58601 14.8997 2.84315 14.1569C2.10028 13.414 1.511 12.5321 1.10896 11.5615C0.706926 10.5909 0.5 9.55057 0.5 8.5C0.5 7.44942 0.706926 6.40914 1.10896 5.43853C1.511 4.46793 2.10028 3.58601 2.84315 2.84315C3.58602 2.10028 4.46793 1.511 5.43853 1.10896C6.40914 0.706926 7.44943 0.5 8.5 0.5C9.55058 0.5 10.5909 0.706926 11.5615 1.10896C12.5321 1.511 13.414 2.10028 14.1569 2.84315C14.8997 3.58602 15.489 4.46793 15.891 5.43853C16.2931 6.40914 16.5 7.44943 16.5 8.5L16.5 8.5Z" stroke="#756D6D"/>
<path d="M7.89258 3.64282L7.89258 8.49997" stroke="#756D6D" stroke-linecap="round"/>
<path d="M7.89258 8.5L12.1426 11.5357" stroke="#756D6D" stroke-linecap="round"/>
<path d="M246.479 12V10.57C246.479 10.24 246.527 9.95767 246.622 9.723C246.725 9.481 246.894 9.26467 247.128 9.074C247.363 8.88333 247.678 8.7 248.074 8.524L249.504 7.875C249.864 7.71367 250.139 7.512 250.329 7.27C250.527 7.02067 250.626 6.70167 250.626 6.313C250.626 5.86567 250.498 5.51367 250.241 5.257C249.985 4.993 249.618 4.861 249.141 4.861C248.672 4.861 248.305 4.993 248.041 5.257C247.785 5.51367 247.656 5.873 247.656 6.335H246.38C246.38 5.85833 246.479 5.42567 246.677 5.037C246.883 4.641 247.191 4.32567 247.601 4.091C248.012 3.85633 248.525 3.739 249.141 3.739C249.757 3.739 250.267 3.85633 250.67 4.091C251.081 4.31833 251.385 4.62267 251.583 5.004C251.789 5.378 251.891 5.78867 251.891 6.236V6.39C251.891 6.97667 251.723 7.47167 251.385 7.875C251.055 8.271 250.586 8.60467 249.977 8.876L248.536 9.525C248.243 9.657 248.041 9.79267 247.931 9.932C247.821 10.0713 247.766 10.2547 247.766 10.482V11.34L247.436 10.878H251.968V12H246.479ZM256.215 12.209C255.621 12.209 255.093 12.11 254.631 11.912C254.176 11.7067 253.82 11.4207 253.564 11.054C253.307 10.6873 253.179 10.2547 253.179 9.756C253.179 9.43333 253.237 9.14367 253.355 8.887C253.479 8.623 253.648 8.39567 253.861 8.205C254.073 8.01433 254.319 7.86767 254.598 7.765V7.644C254.378 7.556 254.18 7.435 254.004 7.281C253.828 7.11967 253.688 6.929 253.586 6.709C253.483 6.489 253.432 6.236 253.432 5.95C253.432 5.47333 253.556 5.07367 253.806 4.751C254.062 4.42833 254.4 4.18267 254.818 4.014C255.243 3.84533 255.709 3.761 256.215 3.761C256.735 3.761 257.205 3.84533 257.623 4.014C258.041 4.18267 258.374 4.42833 258.624 4.751C258.873 5.07367 258.998 5.47333 258.998 5.95C258.998 6.236 258.946 6.489 258.844 6.709C258.748 6.929 258.613 7.11967 258.437 7.281C258.261 7.435 258.059 7.556 257.832 7.644V7.765C258.118 7.86767 258.367 8.01433 258.58 8.205C258.792 8.39567 258.957 8.623 259.075 8.887C259.199 9.14367 259.262 9.43333 259.262 9.756C259.262 10.2547 259.133 10.6873 258.877 11.054C258.62 11.4207 258.261 11.7067 257.799 11.912C257.344 12.11 256.816 12.209 256.215 12.209ZM256.215 11.109C256.581 11.109 256.897 11.054 257.161 10.944C257.425 10.8267 257.63 10.658 257.777 10.438C257.923 10.218 257.997 9.95767 257.997 9.657C257.997 9.35633 257.923 9.09967 257.777 8.887C257.637 8.67433 257.436 8.50933 257.172 8.392C256.908 8.27467 256.589 8.216 256.215 8.216C255.848 8.216 255.533 8.27467 255.269 8.392C255.005 8.50933 254.803 8.67433 254.664 8.887C254.524 9.09967 254.455 9.35633 254.455 9.657C254.455 9.95767 254.524 10.218 254.664 10.438C254.803 10.658 255.005 10.8267 255.269 10.944C255.533 11.054 255.848 11.109 256.215 11.109ZM256.215 7.215C256.677 7.215 257.043 7.11967 257.315 6.929C257.586 6.731 257.722 6.43033 257.722 6.027C257.722 5.62367 257.582 5.32667 257.304 5.136C257.032 4.94533 256.669 4.85 256.215 4.85C255.76 4.85 255.393 4.949 255.115 5.147C254.843 5.33767 254.708 5.631 254.708 6.027C254.708 6.43033 254.843 6.731 255.115 6.929C255.393 7.11967 255.76 7.215 256.215 7.215ZM264.954 12L262.842 9.239H261.918L264.525 6.071H265.889L263.491 8.953L263.546 8.293L266.428 12H264.954ZM260.84 12V3.97H262.127V12H260.84ZM269.241 10.878V5.543H270.363V10.878H269.241ZM267.217 8.733V7.699H272.398V8.733H267.217ZM276.147 12.176C275.45 12.176 274.915 11.9523 274.541 11.505C274.167 11.0503 273.98 10.383 273.98 9.503V6.071H275.267V9.679C275.267 10.0897 275.38 10.416 275.608 10.658C275.835 10.8927 276.143 11.01 276.532 11.01C276.928 11.01 277.25 10.8853 277.5 10.636C277.756 10.3793 277.885 10.031 277.885 9.591V6.071H279.172V12H278.149V9.47H278.281C278.281 10.064 278.2 10.5627 278.039 10.966C277.885 11.362 277.654 11.6627 277.346 11.868C277.045 12.0733 276.664 12.176 276.202 12.176H276.147ZM283.239 12.176C282.44 12.176 281.817 12.0073 281.369 11.67C280.929 11.3327 280.698 10.867 280.676 10.273H281.864C281.879 10.493 281.993 10.6947 282.205 10.878C282.418 11.0613 282.766 11.153 283.25 11.153C283.661 11.153 283.984 11.0723 284.218 10.911C284.453 10.7497 284.57 10.548 284.57 10.306C284.57 10.086 284.482 9.91367 284.306 9.789C284.138 9.657 283.848 9.569 283.437 9.525L282.854 9.47C282.246 9.404 281.762 9.22433 281.402 8.931C281.05 8.63767 280.874 8.24167 280.874 7.743C280.874 7.347 280.973 7.01333 281.171 6.742C281.369 6.47067 281.641 6.26167 281.985 6.115C282.337 5.96833 282.741 5.895 283.195 5.895C283.899 5.895 284.468 6.05267 284.9 6.368C285.333 6.676 285.557 7.13067 285.571 7.732H284.394C284.38 7.50467 284.273 7.314 284.075 7.16C283.877 7.006 283.584 6.929 283.195 6.929C282.829 6.929 282.546 7.00233 282.348 7.149C282.158 7.29567 282.062 7.48267 282.062 7.71C282.062 7.91533 282.136 8.07667 282.282 8.194C282.429 8.31133 282.667 8.38833 282.997 8.425L283.58 8.48C284.248 8.55333 284.776 8.74033 285.164 9.041C285.56 9.33433 285.758 9.745 285.758 10.273C285.758 10.6543 285.652 10.988 285.439 11.274C285.227 11.56 284.93 11.7837 284.548 11.945C284.174 12.099 283.738 12.176 283.239 12.176ZM289.861 12.198C289.348 12.198 288.9 12.11 288.519 11.934C288.138 11.758 287.826 11.527 287.584 11.241C287.342 10.9477 287.159 10.6213 287.034 10.262C286.917 9.89533 286.858 9.52133 286.858 9.14V8.931C286.858 8.54233 286.917 8.16833 287.034 7.809C287.159 7.44233 287.342 7.116 287.584 6.83C287.826 6.53667 288.13 6.30567 288.497 6.137C288.871 5.961 289.304 5.873 289.795 5.873C290.433 5.873 290.965 6.01233 291.39 6.291C291.815 6.56967 292.134 6.93267 292.347 7.38C292.56 7.82 292.666 8.29667 292.666 8.81V9.327H287.408V8.458H291.797L291.445 8.898C291.445 8.502 291.383 8.161 291.258 7.875C291.133 7.58167 290.95 7.358 290.708 7.204C290.466 7.04267 290.162 6.962 289.795 6.962C289.414 6.962 289.095 7.05 288.838 7.226C288.581 7.402 288.391 7.644 288.266 7.952C288.141 8.26 288.079 8.623 288.079 9.041C288.079 9.437 288.141 9.79267 288.266 10.108C288.391 10.416 288.585 10.6617 288.849 10.845C289.113 11.021 289.45 11.109 289.861 11.109C290.272 11.109 290.609 11.021 290.873 10.845C291.137 10.6617 291.298 10.449 291.357 10.207H292.556C292.475 10.6103 292.31 10.9623 292.061 11.263C291.819 11.5637 291.511 11.7947 291.137 11.956C290.763 12.1173 290.338 12.198 289.861 12.198ZM294.164 12V6.071H295.187V8.546H295.143C295.143 7.69533 295.33 7.061 295.704 6.643C296.078 6.21767 296.632 6.005 297.365 6.005H297.574V7.138H297.178C296.621 7.138 296.192 7.28833 295.891 7.589C295.598 7.88233 295.451 8.304 295.451 8.854V12H294.164ZM300.875 12.176C300.076 12.176 299.452 12.0073 299.005 11.67C298.565 11.3327 298.334 10.867 298.312 10.273H299.5C299.515 10.493 299.628 10.6947 299.841 10.878C300.054 11.0613 300.402 11.153 300.886 11.153C301.297 11.153 301.619 11.0723 301.854 10.911C302.089 10.7497 302.206 10.548 302.206 10.306C302.206 10.086 302.118 9.91367 301.942 9.789C301.773 9.657 301.484 9.569 301.073 9.525L300.49 9.47C299.881 9.404 299.397 9.22433 299.038 8.931C298.686 8.63767 298.51 8.24167 298.51 7.743C298.51 7.347 298.609 7.01333 298.807 6.742C299.005 6.47067 299.276 6.26167 299.621 6.115C299.973 5.96833 300.376 5.895 300.831 5.895C301.535 5.895 302.103 6.05267 302.536 6.368C302.969 6.676 303.192 7.13067 303.207 7.732H302.03C302.015 7.50467 301.909 7.314 301.711 7.16C301.513 7.006 301.22 6.929 300.831 6.929C300.464 6.929 300.182 7.00233 299.984 7.149C299.793 7.29567 299.698 7.48267 299.698 7.71C299.698 7.91533 299.771 8.07667 299.918 8.194C300.065 8.31133 300.303 8.38833 300.633 8.425L301.216 8.48C301.883 8.55333 302.411 8.74033 302.8 9.041C303.196 9.33433 303.394 9.745 303.394 10.273C303.394 10.6543 303.288 10.988 303.075 11.274C302.862 11.56 302.565 11.7837 302.184 11.945C301.81 12.099 301.374 12.176 300.875 12.176Z" fill="#1D1C1C"/>
<path d="M220.698 16L220.721 15.2611C220.721 12.4935 222.854 10.2496 225.485 10.2496H230.934C233.565 10.2496 235.698 12.4935 235.698 15.2611L235.676 16H220.698Z" fill="#FBFBFB"/>
<path d="M230.852 2.29619C231.355 2.92642 231.659 3.74004 231.659 4.62763C231.659 6.63092 230.114 8.25531 228.21 8.25531C226.305 8.25531 224.761 6.63092 224.761 4.62763C224.761 2.62433 226.305 1 228.21 1C229.27 1 230.219 1.50364 230.852 2.29619Z" fill="#FBFBFB"/>
<path d="M220.698 16L220.721 15.2611C220.721 12.4935 222.854 10.2496 225.485 10.2496H230.934C233.565 10.2496 235.698 12.4935 235.698 15.2611L235.676 16H220.698Z" stroke="#756D6D" stroke-linecap="round" stroke-linejoin="round"/>
<path d="M230.852 2.29619C231.355 2.92642 231.659 3.74004 231.659 4.62763C231.659 6.63092 230.114 8.25531 228.21 8.25531C226.305 8.25531 224.761 6.63092 224.761 4.62763C224.761 2.62433 226.305 1 228.21 1C229.27 1 230.219 1.50364 230.852 2.29619Z" stroke="#756D6D" stroke-linecap="round" stroke-linejoin="round"/>
<path d="M123.031 11.198C122.423 11.198 121.902 11.0843 121.469 10.857C121.037 10.6223 120.707 10.3107 120.479 9.922C120.259 9.526 120.149 9.09333 120.149 8.624H121.414C121.414 9.07133 121.557 9.427 121.843 9.691C122.137 9.955 122.533 10.087 123.031 10.087C123.361 10.087 123.644 10.0283 123.878 9.911C124.12 9.78633 124.307 9.614 124.439 9.394C124.571 9.16667 124.637 8.90267 124.637 8.602C124.637 8.15467 124.494 7.79167 124.208 7.513C123.922 7.227 123.53 7.084 123.031 7.084C122.811 7.084 122.617 7.11333 122.448 7.172C122.287 7.23067 122.144 7.304 122.019 7.392L121.392 6.303L124.252 4.279L124.142 4.081H120.468V2.97H125.539V4.499L122.91 6.325L122.096 6.27C122.228 6.226 122.371 6.18933 122.525 6.16C122.687 6.13067 122.866 6.116 123.064 6.116C123.666 6.116 124.175 6.226 124.593 6.446C125.019 6.65867 125.345 6.94833 125.572 7.315C125.8 7.68167 125.913 8.09233 125.913 8.547V8.69C125.913 9.13733 125.8 9.55167 125.572 9.933C125.345 10.3143 125.019 10.6223 124.593 10.857C124.168 11.0843 123.647 11.198 123.031 11.198ZM128.214 11L131.415 4.18L131.327 4.059H127.103V2.97H132.724V4.202L129.578 11H128.214ZM127.103 5.346V2.97H128.181V5.346H127.103ZM139.474 11.198C138.784 11.198 138.198 11.088 137.714 10.868C137.237 10.6407 136.874 10.3327 136.625 9.944C136.375 9.548 136.251 9.10067 136.251 8.602H137.549C137.549 8.82933 137.611 9.053 137.736 9.273C137.86 9.493 138.062 9.67633 138.341 9.823C138.619 9.96233 138.997 10.032 139.474 10.032C139.906 10.032 140.262 9.96967 140.541 9.845C140.827 9.72033 141.036 9.55533 141.168 9.35C141.307 9.14467 141.377 8.91733 141.377 8.668C141.377 8.36 141.245 8.11067 140.981 7.92C140.717 7.722 140.321 7.601 139.793 7.557L138.99 7.48C138.249 7.42133 137.659 7.194 137.219 6.798C136.779 6.39467 136.559 5.86667 136.559 5.214C136.559 4.71533 136.676 4.28267 136.911 3.916C137.153 3.54933 137.49 3.26333 137.923 3.058C138.355 2.84533 138.858 2.739 139.43 2.739C140.016 2.739 140.526 2.84533 140.959 3.058C141.391 3.26333 141.725 3.55667 141.96 3.938C142.202 4.312 142.323 4.75933 142.323 5.28H141.025C141.025 5.04533 140.966 4.82533 140.849 4.62C140.739 4.40733 140.566 4.235 140.332 4.103C140.097 3.971 139.796 3.905 139.43 3.905C139.078 3.905 138.784 3.96733 138.55 4.092C138.322 4.21667 138.15 4.378 138.033 4.576C137.915 4.774 137.857 4.98667 137.857 5.214C137.857 5.48533 137.959 5.72733 138.165 5.94C138.37 6.14533 138.685 6.26633 139.111 6.303L139.903 6.369C140.467 6.413 140.955 6.534 141.366 6.732C141.784 6.92267 142.106 7.17933 142.334 7.502C142.568 7.82467 142.686 8.21333 142.686 8.668C142.686 9.16667 142.55 9.60667 142.279 9.988C142.015 10.3693 141.641 10.6663 141.157 10.879C140.68 11.0917 140.119 11.198 139.474 11.198ZM146.862 11.198C146.348 11.198 145.901 11.11 145.52 10.934C145.138 10.758 144.827 10.527 144.585 10.241C144.343 9.94767 144.159 9.62133 144.035 9.262C143.917 8.89533 143.859 8.52133 143.859 8.14V7.931C143.859 7.54233 143.917 7.16833 144.035 6.809C144.159 6.44233 144.343 6.116 144.585 5.83C144.827 5.53667 145.131 5.30567 145.498 5.137C145.872 4.961 146.304 4.873 146.796 4.873C147.434 4.873 147.965 5.01233 148.391 5.291C148.816 5.56967 149.135 5.93267 149.348 6.38C149.56 6.82 149.667 7.29667 149.667 7.81V8.327H144.409V7.458H148.798L148.446 7.898C148.446 7.502 148.383 7.161 148.259 6.875C148.134 6.58167 147.951 6.358 147.709 6.204C147.467 6.04267 147.162 5.962 146.796 5.962C146.414 5.962 146.095 6.05 145.839 6.226C145.582 6.402 145.391 6.644 145.267 6.952C145.142 7.26 145.08 7.623 145.08 8.041C145.08 8.437 145.142 8.79267 145.267 9.108C145.391 9.416 145.586 9.66167 145.85 9.845C146.114 10.021 146.451 10.109 146.862 10.109C147.272 10.109 147.61 10.021 147.874 9.845C148.138 9.66167 148.299 9.449 148.358 9.207H149.557C149.476 9.61033 149.311 9.96233 149.062 10.263C148.82 10.5637 148.512 10.7947 148.138 10.956C147.764 11.1173 147.338 11.198 146.862 11.198ZM153.211 11.176C152.412 11.176 151.788 11.0073 151.341 10.67C150.901 10.3327 150.67 9.867 150.648 9.273H151.836C151.851 9.493 151.964 9.69467 152.177 9.878C152.39 10.0613 152.738 10.153 153.222 10.153C153.633 10.153 153.955 10.0723 154.19 9.911C154.425 9.74967 154.542 9.548 154.542 9.306C154.542 9.086 154.454 8.91367 154.278 8.789C154.109 8.657 153.82 8.569 153.409 8.525L152.826 8.47C152.217 8.404 151.733 8.22433 151.374 7.931C151.022 7.63767 150.846 7.24167 150.846 6.743C150.846 6.347 150.945 6.01333 151.143 5.742C151.341 5.47067 151.612 5.26167 151.957 5.115C152.309 4.96833 152.712 4.895 153.167 4.895C153.871 4.895 154.439 5.05267 154.872 5.368C155.305 5.676 155.528 6.13067 155.543 6.732H154.366C154.351 6.50467 154.245 6.314 154.047 6.16C153.849 6.006 153.556 5.929 153.167 5.929C152.8 5.929 152.518 6.00233 152.32 6.149C152.129 6.29567 152.034 6.48267 152.034 6.71C152.034 6.91533 152.107 7.07667 152.254 7.194C152.401 7.31133 152.639 7.38833 152.969 7.425L153.552 7.48C154.219 7.55333 154.747 7.74033 155.136 8.041C155.532 8.33433 155.73 8.745 155.73 9.273C155.73 9.65433 155.624 9.988 155.411 10.274C155.198 10.56 154.901 10.7837 154.52 10.945C154.146 11.099 153.71 11.176 153.211 11.176ZM159.294 11.176C158.494 11.176 157.871 11.0073 157.424 10.67C156.984 10.3327 156.753 9.867 156.731 9.273H157.919C157.933 9.493 158.047 9.69467 158.26 9.878C158.472 10.0613 158.821 10.153 159.305 10.153C159.715 10.153 160.038 10.0723 160.273 9.911C160.507 9.74967 160.625 9.548 160.625 9.306C160.625 9.086 160.537 8.91367 160.361 8.789C160.192 8.657 159.902 8.569 159.492 8.525L158.909 8.47C158.3 8.404 157.816 8.22433 157.457 7.931C157.105 7.63767 156.929 7.24167 156.929 6.743C156.929 6.347 157.028 6.01333 157.226 5.742C157.424 5.47067 157.695 5.26167 158.04 5.115C158.392 4.96833 158.795 4.895 159.25 4.895C159.954 4.895 160.522 5.05267 160.955 5.368C161.387 5.676 161.611 6.13067 161.626 6.732H160.449C160.434 6.50467 160.328 6.314 160.13 6.16C159.932 6.006 159.638 5.929 159.25 5.929C158.883 5.929 158.601 6.00233 158.403 6.149C158.212 6.29567 158.117 6.48267 158.117 6.71C158.117 6.91533 158.19 7.07667 158.337 7.194C158.483 7.31133 158.722 7.38833 159.052 7.425L159.635 7.48C160.302 7.55333 160.83 7.74033 161.219 8.041C161.615 8.33433 161.813 8.745 161.813 9.273C161.813 9.65433 161.706 9.988 161.494 10.274C161.281 10.56 160.984 10.7837 160.603 10.945C160.229 11.099 159.792 11.176 159.294 11.176ZM163.616 11V5.071H164.903V11H163.616ZM162.747 6.061V5.071H164.903V6.061H162.747ZM164.034 4.246C163.77 4.246 163.572 4.17633 163.44 4.037C163.316 3.89767 163.253 3.718 163.253 3.498C163.253 3.28533 163.316 3.10933 163.44 2.97C163.572 2.82333 163.77 2.75 164.034 2.75C164.306 2.75 164.504 2.82333 164.628 2.97C164.76 3.10933 164.826 3.28533 164.826 3.498C164.826 3.718 164.76 3.89767 164.628 4.037C164.504 4.17633 164.306 4.246 164.034 4.246ZM169.714 11.198C169.194 11.198 168.735 11.1137 168.339 10.945C167.943 10.769 167.61 10.538 167.338 10.252C167.067 9.966 166.862 9.64333 166.722 9.284C166.583 8.91733 166.513 8.53967 166.513 8.151V7.931C166.513 7.54233 166.583 7.16467 166.722 6.798C166.869 6.43133 167.078 6.105 167.349 5.819C167.628 5.52567 167.965 5.29467 168.361 5.126C168.757 4.95733 169.208 4.873 169.714 4.873C170.22 4.873 170.668 4.95733 171.056 5.126C171.452 5.29467 171.79 5.52567 172.068 5.819C172.347 6.105 172.556 6.43133 172.695 6.798C172.842 7.16467 172.915 7.54233 172.915 7.931V8.151C172.915 8.53967 172.846 8.91733 172.706 9.284C172.567 9.64333 172.362 9.966 172.09 10.252C171.819 10.538 171.485 10.769 171.089 10.945C170.693 11.1137 170.235 11.198 169.714 11.198ZM169.714 10.076C170.118 10.076 170.462 9.988 170.748 9.812C171.034 9.62867 171.251 9.383 171.397 9.075C171.551 8.767 171.628 8.42233 171.628 8.041C171.628 7.65233 171.551 7.304 171.397 6.996C171.243 6.688 171.023 6.446 170.737 6.27C170.451 6.08667 170.11 5.995 169.714 5.995C169.318 5.995 168.977 6.08667 168.691 6.27C168.405 6.446 168.185 6.688 168.031 6.996C167.877 7.304 167.8 7.65233 167.8 8.041C167.8 8.42233 167.874 8.767 168.02 9.075C168.174 9.383 168.394 9.62867 168.68 9.812C168.966 9.988 169.311 10.076 169.714 10.076ZM174.497 11V5.071H175.52V7.612H175.399C175.399 7.02533 175.476 6.53033 175.63 6.127C175.791 5.72367 176.033 5.41933 176.356 5.214C176.678 5.00133 177.078 4.895 177.555 4.895H177.61C178.343 4.895 178.889 5.126 179.249 5.588C179.608 6.05 179.788 6.72467 179.788 7.612V11H178.501V7.436C178.501 7.02533 178.383 6.69533 178.149 6.446C177.914 6.18933 177.591 6.061 177.181 6.061C176.763 6.061 176.425 6.193 176.169 6.457C175.912 6.71367 175.784 7.05833 175.784 7.491V11H174.497ZM183.732 11.176C182.932 11.176 182.309 11.0073 181.862 10.67C181.422 10.3327 181.191 9.867 181.169 9.273H182.357C182.371 9.493 182.485 9.69467 182.698 9.878C182.91 10.0613 183.259 10.153 183.743 10.153C184.153 10.153 184.476 10.0723 184.711 9.911C184.945 9.74967 185.063 9.548 185.063 9.306C185.063 9.086 184.975 8.91367 184.799 8.789C184.63 8.657 184.34 8.569 183.93 8.525L183.347 8.47C182.738 8.404 182.254 8.22433 181.895 7.931C181.543 7.63767 181.367 7.24167 181.367 6.743C181.367 6.347 181.466 6.01333 181.664 5.742C181.862 5.47067 182.133 5.26167 182.478 5.115C182.83 4.96833 183.233 4.895 183.688 4.895C184.392 4.895 184.96 5.05267 185.393 5.368C185.825 5.676 186.049 6.13067 186.064 6.732H184.887C184.872 6.50467 184.766 6.314 184.568 6.16C184.37 6.006 184.076 5.929 183.688 5.929C183.321 5.929 183.039 6.00233 182.841 6.149C182.65 6.29567 182.555 6.48267 182.555 6.71C182.555 6.91533 182.628 7.07667 182.775 7.194C182.921 7.31133 183.16 7.38833 183.49 7.425L184.073 7.48C184.74 7.55333 185.268 7.74033 185.657 8.041C186.053 8.33433 186.251 8.745 186.251 9.273C186.251 9.65433 186.144 9.988 185.932 10.274C185.719 10.56 185.422 10.7837 185.041 10.945C184.667 11.099 184.23 11.176 183.732 11.176Z" fill="#1D1C1C"/>
<path d="M105.974 4.98535C106.316 4.80072 106.73 5.02494 106.73 5.3942L106.73 11.5517C106.73 11.9301 106.297 12.1757 105.956 11.991L100.268 8.91229C99.9263 8.72759 99.9368 8.25328 100.286 8.06409L105.974 4.98535Z" fill="#FBFBFB" stroke="#756D6D"/>
<rect x="87.5" y="1.6333" width="14.7118" height="13.7298" rx="2.5" fill="#FBFBFB" stroke="#756D6D"/>
</svg>
