<svg width="367" height="42" viewBox="0 0 367 42" fill="none" xmlns="http://www.w3.org/2000/svg">
<path d="M0 0H367V32C367 37.5228 362.523 42 357 42H10C4.47716 42 0 37.5228 0 32V0Z" fill="#F5801C"/>
<path d="M146.144 26.252C145.444 26.252 144.819 26.112 144.268 25.832C143.717 25.5427 143.288 25.1227 142.98 24.572C142.672 24.0213 142.518 23.3353 142.518 22.514V22.108H144.184V22.724C144.184 23.34 144.366 23.8253 144.73 24.18C145.094 24.5253 145.565 24.698 146.144 24.698C146.713 24.698 147.18 24.5253 147.544 24.18C147.908 23.8253 148.09 23.34 148.09 22.724V16.984H149.77V22.514C149.77 23.3353 149.616 24.0213 149.308 24.572C149 25.1227 148.571 25.5427 148.02 25.832C147.479 26.112 146.853 26.252 146.144 26.252ZM143.806 17.264V15.78H149.77V17.264H143.806ZM155.715 26.252C155.052 26.252 154.469 26.1447 153.965 25.93C153.461 25.706 153.036 25.412 152.691 25.048C152.345 24.684 152.084 24.2733 151.907 23.816C151.729 23.3493 151.641 22.8687 151.641 22.374V22.094C151.641 21.5993 151.729 21.1187 151.907 20.652C152.093 20.1853 152.359 19.77 152.705 19.406C153.059 19.0327 153.489 18.7387 153.993 18.524C154.497 18.3093 155.071 18.202 155.715 18.202C156.359 18.202 156.928 18.3093 157.423 18.524C157.927 18.7387 158.356 19.0327 158.711 19.406C159.065 19.77 159.331 20.1853 159.509 20.652C159.695 21.1187 159.789 21.5993 159.789 22.094V22.374C159.789 22.8687 159.7 23.3493 159.523 23.816C159.345 24.2733 159.084 24.684 158.739 25.048C158.393 25.412 157.969 25.706 157.465 25.93C156.961 26.1447 156.377 26.252 155.715 26.252ZM155.715 24.824C156.228 24.824 156.667 24.712 157.031 24.488C157.395 24.2547 157.67 23.942 157.857 23.55C158.053 23.158 158.151 22.7193 158.151 22.234C158.151 21.7393 158.053 21.296 157.857 20.904C157.661 20.512 157.381 20.204 157.017 19.98C156.653 19.7467 156.219 19.63 155.715 19.63C155.211 19.63 154.777 19.7467 154.413 19.98C154.049 20.204 153.769 20.512 153.573 20.904C153.377 21.296 153.279 21.7393 153.279 22.234C153.279 22.7193 153.372 23.158 153.559 23.55C153.755 23.942 154.035 24.2547 154.399 24.488C154.763 24.712 155.201 24.824 155.715 24.824ZM162.025 26V18.454H163.663V26H162.025ZM160.919 19.714V18.454H163.663V19.714H160.919ZM162.557 17.404C162.221 17.404 161.969 17.3153 161.801 17.138C161.642 16.9607 161.563 16.732 161.563 16.452C161.563 16.1813 161.642 15.9573 161.801 15.78C161.969 15.5933 162.221 15.5 162.557 15.5C162.902 15.5 163.154 15.5933 163.313 15.78C163.481 15.9573 163.565 16.1813 163.565 16.452C163.565 16.732 163.481 16.9607 163.313 17.138C163.154 17.3153 162.902 17.404 162.557 17.404ZM166.104 26V18.454H167.406V21.688H167.252C167.252 20.9413 167.35 20.3113 167.546 19.798C167.752 19.2847 168.06 18.8973 168.47 18.636C168.881 18.3653 169.39 18.23 169.996 18.23H170.066C171 18.23 171.695 18.524 172.152 19.112C172.61 19.7 172.838 20.5587 172.838 21.688V26H171.2V21.464C171.2 20.9413 171.051 20.5213 170.752 20.204C170.454 19.8773 170.043 19.714 169.52 19.714C168.988 19.714 168.559 19.882 168.232 20.218C167.906 20.5447 167.742 20.9833 167.742 21.534V26H166.104ZM181.494 26.252C180.85 26.252 180.285 26.1447 179.8 25.93C179.324 25.706 178.927 25.4073 178.61 25.034C178.302 24.6513 178.068 24.2313 177.91 23.774C177.76 23.3073 177.686 22.836 177.686 22.36V22.108C177.686 21.6133 177.765 21.1373 177.924 20.68C178.082 20.2133 178.32 19.7933 178.638 19.42C178.955 19.0467 179.347 18.7527 179.814 18.538C180.29 18.314 180.845 18.202 181.48 18.202C182.124 18.202 182.698 18.3233 183.202 18.566C183.715 18.8087 184.126 19.154 184.434 19.602C184.742 20.0407 184.914 20.554 184.952 21.142H183.37C183.314 20.722 183.122 20.3673 182.796 20.078C182.478 19.7887 182.04 19.644 181.48 19.644C180.994 19.644 180.593 19.756 180.276 19.98C179.958 20.204 179.72 20.512 179.562 20.904C179.403 21.2867 179.324 21.73 179.324 22.234C179.324 22.7193 179.398 23.158 179.548 23.55C179.706 23.942 179.944 24.25 180.262 24.474C180.588 24.698 180.999 24.81 181.494 24.81C181.876 24.81 182.203 24.7447 182.474 24.614C182.754 24.474 182.978 24.292 183.146 24.068C183.314 23.8347 183.412 23.5687 183.44 23.27H185.036C185.008 23.8767 184.835 24.404 184.518 24.852C184.2 25.2907 183.78 25.636 183.258 25.888C182.735 26.1307 182.147 26.252 181.494 26.252ZM190.277 26.252C189.615 26.252 189.031 26.1447 188.527 25.93C188.023 25.706 187.599 25.412 187.253 25.048C186.908 24.684 186.647 24.2733 186.469 23.816C186.292 23.3493 186.203 22.8687 186.203 22.374V22.094C186.203 21.5993 186.292 21.1187 186.469 20.652C186.656 20.1853 186.922 19.77 187.267 19.406C187.622 19.0327 188.051 18.7387 188.555 18.524C189.059 18.3093 189.633 18.202 190.277 18.202C190.921 18.202 191.491 18.3093 191.985 18.524C192.489 18.7387 192.919 19.0327 193.273 19.406C193.628 19.77 193.894 20.1853 194.071 20.652C194.258 21.1187 194.351 21.5993 194.351 22.094V22.374C194.351 22.8687 194.263 23.3493 194.085 23.816C193.908 24.2733 193.647 24.684 193.301 25.048C192.956 25.412 192.531 25.706 192.027 25.93C191.523 26.1447 190.94 26.252 190.277 26.252ZM190.277 24.824C190.791 24.824 191.229 24.712 191.593 24.488C191.957 24.2547 192.233 23.942 192.419 23.55C192.615 23.158 192.713 22.7193 192.713 22.234C192.713 21.7393 192.615 21.296 192.419 20.904C192.223 20.512 191.943 20.204 191.579 19.98C191.215 19.7467 190.781 19.63 190.277 19.63C189.773 19.63 189.339 19.7467 188.975 19.98C188.611 20.204 188.331 20.512 188.135 20.904C187.939 21.296 187.841 21.7393 187.841 22.234C187.841 22.7193 187.935 23.158 188.121 23.55C188.317 23.942 188.597 24.2547 188.961 24.488C189.325 24.712 189.764 24.824 190.277 24.824ZM198.814 26.224C197.927 26.224 197.246 25.9393 196.77 25.37C196.294 24.7913 196.056 23.942 196.056 22.822V18.454H197.694V23.046C197.694 23.5687 197.838 23.984 198.128 24.292C198.417 24.5907 198.809 24.74 199.304 24.74C199.808 24.74 200.218 24.5813 200.536 24.264C200.862 23.9373 201.026 23.494 201.026 22.934V18.454H202.664V26H201.362V22.78H201.53C201.53 23.536 201.427 24.1707 201.222 24.684C201.026 25.188 200.732 25.5707 200.34 25.832C199.957 26.0933 199.472 26.224 198.884 26.224H198.814ZM205.097 26V18.454H206.399V21.604H206.343C206.343 20.5213 206.581 19.714 207.057 19.182C207.533 18.6407 208.237 18.37 209.171 18.37H209.437V19.812H208.933C208.223 19.812 207.677 20.0033 207.295 20.386C206.921 20.7593 206.735 21.296 206.735 21.996V26H205.097ZM213.497 26.224C212.48 26.224 211.687 26.0093 211.117 25.58C210.557 25.1507 210.263 24.558 210.235 23.802H211.747C211.766 24.082 211.911 24.3387 212.181 24.572C212.452 24.8053 212.895 24.922 213.511 24.922C214.034 24.922 214.445 24.8193 214.743 24.614C215.042 24.4087 215.191 24.152 215.191 23.844C215.191 23.564 215.079 23.3447 214.855 23.186C214.641 23.018 214.272 22.906 213.749 22.85L213.007 22.78C212.233 22.696 211.617 22.4673 211.159 22.094C210.711 21.7207 210.487 21.2167 210.487 20.582C210.487 20.078 210.613 19.6533 210.865 19.308C211.117 18.9627 211.463 18.6967 211.901 18.51C212.349 18.3233 212.863 18.23 213.441 18.23C214.337 18.23 215.061 18.4307 215.611 18.832C216.162 19.224 216.447 19.8027 216.465 20.568H214.967C214.949 20.2787 214.813 20.036 214.561 19.84C214.309 19.644 213.936 19.546 213.441 19.546C212.975 19.546 212.615 19.6393 212.363 19.826C212.121 20.0127 211.999 20.2507 211.999 20.54C211.999 20.8013 212.093 21.0067 212.279 21.156C212.466 21.3053 212.769 21.4033 213.189 21.45L213.931 21.52C214.781 21.6133 215.453 21.8513 215.947 22.234C216.451 22.6073 216.703 23.13 216.703 23.802C216.703 24.2873 216.568 24.712 216.297 25.076C216.027 25.44 215.649 25.7247 215.163 25.93C214.687 26.126 214.132 26.224 213.497 26.224ZM221.785 26.252C221.132 26.252 220.562 26.14 220.077 25.916C219.592 25.692 219.195 25.398 218.887 25.034C218.579 24.6607 218.346 24.2453 218.187 23.788C218.038 23.3213 217.963 22.8453 217.963 22.36V22.094C217.963 21.5993 218.038 21.1233 218.187 20.666C218.346 20.1993 218.579 19.784 218.887 19.42C219.195 19.0467 219.582 18.7527 220.049 18.538C220.525 18.314 221.076 18.202 221.701 18.202C222.513 18.202 223.19 18.3793 223.731 18.734C224.272 19.0887 224.678 19.5507 224.949 20.12C225.22 20.68 225.355 21.2867 225.355 21.94V22.598H218.663V21.492H224.249L223.801 22.052C223.801 21.548 223.722 21.114 223.563 20.75C223.404 20.3767 223.171 20.092 222.863 19.896C222.555 19.6907 222.168 19.588 221.701 19.588C221.216 19.588 220.81 19.7 220.483 19.924C220.156 20.148 219.914 20.456 219.755 20.848C219.596 21.24 219.517 21.702 219.517 22.234C219.517 22.738 219.596 23.1907 219.755 23.592C219.914 23.984 220.161 24.2967 220.497 24.53C220.833 24.754 221.262 24.866 221.785 24.866C222.308 24.866 222.737 24.754 223.073 24.53C223.409 24.2967 223.614 24.026 223.689 23.718H225.215C225.112 24.2313 224.902 24.6793 224.585 25.062C224.277 25.4447 223.885 25.7387 223.409 25.944C222.933 26.1493 222.392 26.252 221.785 26.252Z" fill="#FBFBFB"/>
</svg>
