<svg width="150" height="150" viewBox="0 0 150 150" fill="none" xmlns="http://www.w3.org/2000/svg">
<circle cx="75" cy="75" r="75" fill="#FAFAFA"/>
<path d="M80.2387 84.4174L80.2388 84.4173L85.209 80.2816L80.2389 76.146C80.2389 76.146 80.2388 76.146 80.2388 76.146C79.6649 75.6686 79.5938 74.8208 80.0851 74.2569C80.5711 73.6991 81.4236 73.6331 81.9918 74.1067L80.2387 84.4174ZM80.2387 84.4174C79.6654 84.8949 79.5935 85.7422 80.0848 86.3059C80.3544 86.6162 80.7364 86.773 81.1161 86.773C81.4245 86.773 81.7367 86.6693 81.9918 86.4571L88.1881 81.3018L88.1882 81.3016C88.4918 81.0488 88.6689 80.6769 88.6689 80.2816C88.6689 79.8868 88.4917 79.5149 88.1882 79.2621L88.1881 79.262L81.9922 74.107L80.2387 84.4174ZM64.791 80.2816L69.7609 76.1462C70.3359 75.6686 70.4059 74.8207 69.9156 74.2571L69.9152 74.2567C69.4287 73.6991 68.5768 73.6332 68.0082 74.1067C68.0081 74.1068 68.0081 74.1068 68.008 74.1069L61.8119 79.262L61.8114 79.2624C61.5092 79.5148 61.3311 79.8863 61.3311 80.2816C61.3311 80.6769 61.5083 81.0488 61.8118 81.3016L61.8119 81.3018L68.0082 86.457C68.2633 86.6693 68.5755 86.773 68.8839 86.773C69.2638 86.773 69.6454 86.6162 69.9154 86.3064L69.6138 86.0436L69.9154 86.3063C70.4062 85.743 70.3356 84.8952 69.7612 84.4173C69.7612 84.4173 69.7612 84.4173 69.7612 84.4172L64.791 80.2816ZM72.5271 90.6112L72.5281 90.6114C72.6201 90.6301 72.7131 90.6397 72.8065 90.6397C73.4281 90.6397 73.9963 90.2154 74.1331 89.5812L74.1332 89.5811L77.9949 71.6661L77.9949 71.666C78.1524 70.9348 77.672 70.2313 76.945 70.0816L76.9449 70.0815C76.2199 69.9324 75.4958 70.3841 75.3389 71.1116L75.3389 71.1116L71.4772 89.0266C71.3196 89.7573 71.8 90.4615 72.5271 90.6112ZM101.685 62.7106H48.3151V56.282C48.3151 54.0796 50.1524 52.2712 52.4292 52.2712H97.5708C99.8476 52.2712 101.685 54.0796 101.685 56.282V62.7106ZM48.3151 65.3818H101.685V93.718C101.685 95.9204 99.8476 97.7288 97.5708 97.7288H52.4292C50.1524 97.7288 48.3151 95.9204 48.3151 93.718V65.3818ZM104.4 64.0462V56.282C104.4 52.5887 101.328 49.6 97.5708 49.6H52.4292C48.6723 49.6 45.6 52.5887 45.6 56.282V64.0462V93.718C45.6 97.4118 48.6723 100.4 52.4292 100.4H97.5708C101.328 100.4 104.4 97.4118 104.4 93.718V64.0462ZM58.9303 57.5439C58.9303 59.4056 60.4781 60.9048 62.3606 60.9048C64.2437 60.9048 65.7909 59.4056 65.7909 57.5439C65.7909 55.6817 64.2436 54.183 62.3606 54.183C60.4781 54.183 58.9303 55.6816 58.9303 57.5439ZM61.6454 57.5439C61.6454 57.1727 61.9581 56.8543 62.3606 56.8543C62.7635 56.8543 63.0758 57.1726 63.0758 57.5439C63.0758 57.9153 62.7635 58.2335 62.3606 58.2335C61.9581 58.2335 61.6454 57.9151 61.6454 57.5439ZM49.6199 57.5152C49.6199 59.3774 51.1671 60.8761 53.0502 60.8761C54.9332 60.8761 56.4804 59.3774 56.4804 57.5152C56.4804 55.653 54.9332 54.1543 53.0502 54.1543C51.1671 54.1543 49.6199 55.653 49.6199 57.5152ZM52.335 57.5152C52.335 57.1444 52.6478 56.8256 53.0502 56.8256C53.4529 56.8256 53.7653 57.1442 53.7653 57.5152C53.7653 57.8865 53.4531 58.2048 53.0502 58.2048C52.6477 58.2048 52.335 57.8864 52.335 57.5152ZM68.2413 57.5721C68.2413 59.4343 69.7885 60.933 71.671 60.933C73.5541 60.933 75.1013 59.4343 75.1013 57.5721C75.1013 55.7104 73.554 54.2118 71.671 54.2118C69.7885 54.2118 68.2413 55.7104 68.2413 57.5721ZM70.9564 57.5721C70.9564 57.2006 71.2688 56.8825 71.671 56.8825C72.0739 56.8825 72.3862 57.2008 72.3862 57.5721C72.3862 57.9434 72.0739 58.2617 71.671 58.2617C71.2688 58.2617 70.9564 57.9436 70.9564 57.5721Z" fill="#F5801C" stroke="#F5801C" stroke-width="0.8"/>
</svg>
