<svg width="572" height="572" viewBox="0 0 572 572" fill="none" xmlns="http://www.w3.org/2000/svg">
<g opacity="0.3">
<path d="M444.002 273.56C442.282 251.134 436.049 229.318 425.698 209.489C415.346 189.659 401.1 172.248 383.86 158.352L379.409 164.167C395.866 177.431 409.465 194.051 419.346 212.98C429.227 231.908 435.177 252.733 436.819 274.14L444.002 273.56Z" fill="#FFCEA4"/>
<path d="M369.939 148.323C351.347 136.402 330.548 128.566 308.856 125.309C287.164 122.053 265.049 123.446 243.909 129.402L245.816 136.531C265.997 130.846 287.106 129.516 307.813 132.625C328.52 135.734 348.373 143.214 366.12 154.593L369.939 148.323Z" fill="#FFCEA4"/>
<path d="M223.928 136.531C203.747 145.321 185.562 158.308 170.52 174.672C155.478 191.037 143.906 210.424 136.535 231.609L143.32 234.095C150.357 213.873 161.403 195.367 175.762 179.745C190.12 164.124 207.479 151.727 226.743 143.337L223.928 136.531Z" fill="#FFCEA4"/>
<path d="M389.943 409.144C406.489 394.386 419.873 376.268 429.25 355.935C438.628 335.602 443.795 313.494 444.425 291.009L437.223 290.796C436.621 312.26 431.689 333.363 422.737 352.772C413.786 372.182 401.01 389.476 385.216 403.564L389.943 409.144Z" fill="#FFCEA4"/>
<path d="M250.219 444.89C271.581 449.95 293.732 450.411 315.276 446.244C336.82 442.077 357.287 433.372 375.387 420.678L371.321 414.574C354.044 426.691 334.506 435.001 313.941 438.979C293.376 442.956 272.231 442.516 251.84 437.686L250.219 444.89Z" fill="#FFCEA4"/>
<path d="M140.454 351.217C149.196 371.847 162.011 390.392 178.091 405.683C194.17 420.974 213.164 432.678 233.874 440.057L236.238 433.073C216.469 426.029 198.337 414.857 182.988 400.26C167.64 385.664 155.407 367.961 147.062 348.269L140.454 351.217Z" fill="#FFCEA4"/>
<path d="M133.187 242.403C124.488 274.244 125.45 308.048 135.943 339.314L142.756 336.906C132.739 307.061 131.822 274.793 140.125 244.399L133.187 242.403Z" fill="#FFCEA4"/>
<path d="M375.56 279.031C374.586 266.661 371.059 254.628 365.2 243.69C359.341 232.752 351.278 223.148 341.52 215.483L339.001 218.69C348.316 226.007 356.012 235.175 361.605 245.616C367.198 256.056 370.565 267.543 371.494 279.351L375.56 279.031Z" fill="#FEAD68"/>
<path d="M333.641 209.951C323.118 203.376 311.347 199.053 299.069 197.257C286.792 195.461 274.275 196.229 262.31 199.514L263.39 203.447C274.811 200.311 286.759 199.577 298.479 201.292C310.199 203.007 321.435 207.133 331.48 213.409L333.641 209.951Z" fill="#FEAD68"/>
<path d="M251.001 203.447C239.58 208.295 229.287 215.459 220.773 224.485C212.26 233.512 205.71 244.206 201.538 255.892L205.379 257.263C209.362 246.108 215.614 235.9 223.74 227.284C231.867 218.667 241.692 211.829 252.595 207.201L251.001 203.447Z" fill="#FEAD68"/>
<path d="M344.964 353.819C354.329 345.678 361.904 335.685 367.211 324.469C372.519 313.253 375.443 301.059 375.8 288.656L371.724 288.539C371.383 300.378 368.591 312.019 363.525 322.725C358.459 333.431 351.228 342.97 342.289 350.741L344.964 353.819Z" fill="#FEAD68"/>
<path d="M265.882 373.537C277.972 376.328 290.509 376.582 302.703 374.283C314.896 371.985 326.481 367.183 336.725 360.182L334.423 356.815C324.645 363.498 313.587 368.082 301.947 370.276C290.308 372.47 278.34 372.227 266.799 369.563L265.882 373.537Z" fill="#FEAD68"/>
<path d="M203.757 321.867C208.705 333.246 215.958 343.475 225.058 351.91C234.159 360.344 244.91 366.8 256.631 370.87L257.969 367.018C246.78 363.133 236.518 356.97 227.831 348.919C219.143 340.868 212.22 331.103 207.497 320.241L203.757 321.867Z" fill="#FEAD68"/>
<path d="M199.643 261.845C194.719 279.409 195.263 298.055 201.202 315.301L205.058 313.973C199.389 297.51 198.87 279.711 203.569 262.946L199.643 261.845Z" fill="#FEAD68"/>
<path d="M488.102 270.094C485.903 242.157 477.936 214.979 464.704 190.277C451.472 165.574 433.262 143.883 411.224 126.573L405.535 133.816C426.572 150.34 443.954 171.045 456.585 194.626C469.216 218.206 476.821 244.149 478.92 270.817L488.102 270.094Z" fill="#DACCFF"/>
<path d="M393.428 114.078C369.663 99.2278 343.077 89.4661 315.349 85.4091C287.621 81.3521 259.353 83.0878 232.329 90.5069L234.768 99.3887C260.563 92.3067 287.547 90.6498 314.016 94.5225C340.484 98.3952 365.862 107.713 388.548 121.889L393.428 114.078Z" fill="#DACCFF"/>
<path d="M206.788 99.389C180.993 110.339 157.747 126.517 138.52 146.904C119.292 167.291 104.5 191.442 95.0772 217.834L103.751 220.931C112.746 195.738 126.866 172.684 145.22 153.224C163.574 133.763 185.763 118.319 210.387 107.867L206.788 99.389Z" fill="#DACCFF"/>
<path d="M419 439C440.15 420.614 457.258 398.044 469.245 372.714C481.232 347.383 487.836 319.843 488.642 291.831L479.436 291.566C478.666 318.305 472.362 344.595 460.919 368.774C449.477 392.954 433.146 414.499 412.958 432.048L419 439Z" fill="#DACCFF"/>
<path d="M240.397 483.531C267.702 489.835 296.018 490.409 323.556 485.218C351.095 480.026 377.258 469.182 400.394 453.369L395.196 445.765C373.112 460.859 348.137 471.211 321.85 476.167C295.563 481.122 268.534 480.574 242.469 474.556L240.397 483.531Z" fill="#DACCFF"/>
<path d="M100.089 366.837C111.263 392.536 127.644 415.639 148.198 434.688C168.751 453.737 193.031 468.318 219.504 477.51L222.525 468.809C197.255 460.035 174.078 446.116 154.458 427.933C134.839 409.749 119.202 387.696 108.535 363.164L100.089 366.837Z" fill="#DACCFF"/>
<path d="M90.7988 231.28C79.6796 270.946 80.9083 313.058 94.3213 352.008L103.03 349.009C90.2262 311.828 89.0533 271.63 99.6674 233.766L90.7988 231.28Z" fill="#DACCFF"/>
<path d="M409.207 276.327C407.867 259.298 403.011 242.733 394.945 227.676C386.88 212.619 375.781 199.398 362.348 188.847L358.88 193.262C371.703 203.333 382.298 215.954 389.997 230.327C397.695 244.7 402.331 260.512 403.61 276.767L409.207 276.327Z" fill="#B49BF8"/>
<path d="M351.501 181.231C337.016 172.179 320.811 166.229 303.91 163.757C287.009 161.284 269.779 162.342 253.307 166.864L254.793 172.278C270.517 167.961 286.964 166.951 303.097 169.311C319.23 171.672 334.699 177.352 348.526 185.992L351.501 181.231Z" fill="#B49BF8"/>
<path d="M237.74 172.278C222.017 178.952 207.848 188.813 196.128 201.239C184.409 213.665 175.392 228.386 169.649 244.473L174.936 246.36C180.419 231.005 189.025 216.953 200.212 205.091C211.4 193.229 224.924 183.816 239.933 177.445L237.74 172.278Z" fill="#B49BF8"/>
<path d="M367.088 379.278C379.979 368.072 390.407 354.315 397.713 338.876C405.019 323.436 409.045 306.65 409.536 289.576L403.925 289.414C403.456 305.712 399.613 321.736 392.639 336.474C385.664 351.212 375.71 364.344 363.405 375.041L367.088 379.278Z" fill="#B49BF8"/>
<path d="M258.224 406.421C274.868 410.264 292.127 410.614 308.912 407.449C325.697 404.285 341.644 397.675 355.746 388.037L352.578 383.402C339.117 392.602 323.895 398.912 307.872 401.932C291.849 404.953 275.374 404.619 259.487 400.951L258.224 406.421Z" fill="#B49BF8"/>
<path d="M172.703 335.294C179.514 350.958 189.499 365.04 202.027 376.651C214.555 388.261 229.354 397.149 245.49 402.751L247.331 397.448C231.928 392.1 217.802 383.616 205.843 372.533C193.884 361.45 184.353 348.008 177.852 333.055L172.703 335.294Z" fill="#B49BF8"/>
<path d="M167.041 252.668C160.264 276.846 161.013 302.514 169.188 326.255L174.496 324.427C166.692 301.765 165.977 277.262 172.447 254.184L167.041 252.668Z" fill="#B49BF8"/>
</g>
</svg>
