<svg width="124" height="28" viewBox="0 0 124 28" fill="none" xmlns="http://www.w3.org/2000/svg">
<path d="M0.87 27V1.45H6.61V27H0.87ZM5.91 27V21.96H16.62V27H5.91ZM28.6173 27.665C26.984 27.665 25.5373 27.385 24.2773 26.825C23.0407 26.265 22.0023 25.5183 21.1623 24.585C20.3457 23.6283 19.7157 22.5667 19.2723 21.4C18.8523 20.21 18.6423 18.9967 18.6423 17.76V17.06C18.6423 15.7767 18.8523 14.5517 19.2723 13.385C19.7157 12.195 20.3457 11.1333 21.1623 10.2C21.979 9.26667 22.994 8.53167 24.2073 7.995C25.444 7.435 26.844 7.155 28.4073 7.155C30.4607 7.155 32.1873 7.62167 33.5873 8.555C35.0107 9.465 36.0957 10.6667 36.8423 12.16C37.589 13.63 37.9623 15.24 37.9623 16.99V18.88H20.9873V15.695H34.5673L32.7473 17.165C32.7473 16.0217 32.584 15.0417 32.2573 14.225C31.9307 13.4083 31.4407 12.79 30.7873 12.37C30.1573 11.9267 29.364 11.705 28.4073 11.705C27.4273 11.705 26.599 11.9267 25.9223 12.37C25.2457 12.8133 24.7323 13.4667 24.3823 14.33C24.0323 15.17 23.8573 16.2083 23.8573 17.445C23.8573 18.5883 24.0207 19.5917 24.3473 20.455C24.674 21.295 25.1873 21.9483 25.8873 22.415C26.5873 22.8817 27.4973 23.115 28.6173 23.115C29.644 23.115 30.484 22.9167 31.1373 22.52C31.7907 22.1233 32.234 21.6333 32.4673 21.05H37.6123C37.3323 22.3333 36.784 23.4767 35.9673 24.48C35.1507 25.4833 34.124 26.265 32.8873 26.825C31.6507 27.385 30.2273 27.665 28.6173 27.665ZM53.2582 27V21.33H52.3132V15.17C52.3132 14.19 52.0798 13.455 51.6132 12.965C51.1465 12.475 50.3998 12.23 49.3732 12.23C48.8598 12.23 48.1832 12.2417 47.3432 12.265C46.5032 12.2883 45.6398 12.3233 44.7532 12.37C43.8665 12.4167 43.0615 12.4633 42.3382 12.51V7.785C42.8748 7.73833 43.5048 7.69167 44.2282 7.645C44.9515 7.59833 45.6982 7.56333 46.4682 7.54C47.2382 7.51667 47.9615 7.505 48.6382 7.505C50.5982 7.505 52.2432 7.785 53.5732 8.345C54.9265 8.905 55.9532 9.75667 56.6532 10.9C57.3532 12.02 57.7032 13.4667 57.7032 15.24V27H53.2582ZM47.1332 27.49C45.7565 27.49 44.5432 27.245 43.4932 26.755C42.4665 26.265 41.6615 25.565 41.0782 24.655C40.4948 23.7217 40.2032 22.6133 40.2032 21.33C40.2032 19.93 40.5648 18.7867 41.2882 17.9C42.0115 16.99 43.0265 16.325 44.3332 15.905C45.6398 15.4617 47.1448 15.24 48.8482 15.24H52.9432V18.355H48.8132C47.8332 18.355 47.0748 18.6 46.5382 19.09C46.0248 19.5567 45.7682 20.1983 45.7682 21.015C45.7682 21.785 46.0248 22.415 46.5382 22.905C47.0748 23.3717 47.8332 23.605 48.8132 23.605C49.4432 23.605 50.0032 23.5 50.4932 23.29C51.0065 23.0567 51.4265 22.6717 51.7532 22.135C52.0798 21.5983 52.2665 20.8517 52.3132 19.895L53.6432 21.295C53.5265 22.625 53.1998 23.745 52.6632 24.655C52.1498 25.565 51.4265 26.265 50.4932 26.755C49.5832 27.245 48.4632 27.49 47.1332 27.49ZM62.4544 27V7.82H66.8994V16.045H66.7944C66.7944 13.3383 67.3661 11.25 68.5094 9.78C69.6761 8.31 71.3561 7.575 73.5494 7.575H74.2844V12.405H72.8844C71.3444 12.405 70.1544 12.825 69.3144 13.665C68.4744 14.4817 68.0544 15.6717 68.0544 17.235V27H62.4544ZM77.1859 27V7.82H81.6309V16.045H81.3159C81.3159 14.085 81.5609 12.4517 82.0509 11.145C82.5642 9.83833 83.3342 8.85833 84.3609 8.205C85.3875 7.55167 86.6359 7.225 88.1059 7.225H88.3509C90.5909 7.225 92.2942 7.96 93.4609 9.43C94.6509 10.8767 95.2459 13.0817 95.2459 16.045V27H89.6459V15.73C89.6459 14.7033 89.3425 13.8633 88.7359 13.21C88.1292 12.5567 87.3125 12.23 86.2859 12.23C85.2359 12.23 84.3842 12.5683 83.7309 13.245C83.1009 13.8983 82.7859 14.7617 82.7859 15.835V27H77.1859ZM100.928 27V7.82H106.528V27H100.928ZM98.3729 11.95V7.82H106.528V11.95H98.3729ZM103.098 5.93C102.048 5.93 101.266 5.66167 100.753 5.125C100.263 4.565 100.018 3.865 100.018 3.025C100.018 2.16166 100.263 1.46166 100.753 0.924998C101.266 0.364998 102.048 0.0849981 103.098 0.0849981C104.148 0.0849981 104.918 0.364998 105.408 0.924998C105.921 1.46166 106.178 2.16166 106.178 3.025C106.178 3.865 105.921 4.565 105.408 5.125C104.918 5.66167 104.148 5.93 103.098 5.93ZM120.422 27.245C118.486 27.245 116.922 27.0117 115.732 26.545C114.542 26.055 113.667 25.25 113.107 24.13C112.571 22.9867 112.302 21.4467 112.302 19.51V2.64H117.517V19.72C117.517 20.63 117.751 21.33 118.217 21.82C118.707 22.2867 119.396 22.52 120.282 22.52H123.117V27.245H120.422ZM109.397 11.915V7.82H123.117V11.915H109.397Z" fill="#F5801C"/>
</svg>
