<svg width="60" height="52" viewBox="0 0 60 52" fill="none" xmlns="http://www.w3.org/2000/svg">
<path d="M35.2387 35.4174L35.2388 35.4173L40.209 31.2816L35.2389 27.146C35.2389 27.146 35.2388 27.146 35.2388 27.146C34.6649 26.6686 34.5938 25.8208 35.0852 25.2569C35.5711 24.6991 36.4237 24.6331 36.9918 25.1067L35.2387 35.4174ZM35.2387 35.4174C34.6653 35.8951 34.5935 36.7428 35.0853 37.3065M35.2387 35.4174L36.9922 25.107L43.1881 30.262L43.1882 30.2621C43.4917 30.5149 43.6689 30.8868 43.6689 31.2816C43.6689 31.6769 43.4918 32.0488 43.1882 32.3016L43.1881 32.3018L36.9918 37.457C36.9918 37.4571 36.9918 37.4571 36.9918 37.4571C36.7367 37.6693 36.4245 37.773 36.1161 37.773C35.7366 37.773 35.3548 37.6164 35.0853 37.3065M35.0853 37.3065C35.0853 37.3065 35.0853 37.3065 35.0853 37.3066L35.3867 37.0436L35.0848 37.3059C35.0849 37.3061 35.0851 37.3063 35.0853 37.3065ZM19.791 31.2816L24.7609 27.1462C25.3359 26.6686 25.4059 25.8207 24.9156 25.2571L24.9152 25.2567C24.4287 24.6991 23.5768 24.6332 23.0082 25.1067C23.0081 25.1068 23.0081 25.1068 23.008 25.1069L16.8119 30.262L16.8114 30.2624C16.5092 30.5148 16.3311 30.8863 16.3311 31.2816C16.3311 31.6769 16.5083 32.0488 16.8118 32.3016L16.8119 32.3018L23.0082 37.457C23.0082 37.4571 23.0082 37.4571 23.0082 37.4571C23.2633 37.6693 23.5755 37.773 23.8839 37.773C24.2638 37.773 24.6454 37.6162 24.9154 37.3063L24.6138 37.0436L24.9154 37.3063C25.4062 36.743 25.3356 35.8952 24.7612 35.4173C24.7612 35.4173 24.7612 35.4173 24.7611 35.4172L19.791 31.2816ZM27.5271 41.6112L27.5281 41.6114C27.6201 41.6301 27.7131 41.6397 27.8065 41.6397C28.4281 41.6397 28.9963 41.2154 29.1331 40.5812L29.1332 40.5811L32.9949 22.6661L32.9949 22.666C33.1524 21.9348 32.672 21.2313 31.945 21.0816L31.9449 21.0815C31.2199 20.9324 30.4958 21.3841 30.3389 22.1116L30.3389 22.1116L26.4772 40.0266C26.3196 40.7573 26.8 41.4615 27.5271 41.6112ZM56.6849 13.7106H3.31509V7.28198C3.31509 5.07961 5.15239 3.27123 7.42924 3.27123H52.5708C54.8476 3.27123 56.6849 5.07961 56.6849 7.28198V13.7106ZM3.31509 16.3818H56.6849V44.718C56.6849 46.9204 54.8476 48.7288 52.5708 48.7288H7.42924C5.15239 48.7288 3.31509 46.9204 3.31509 44.718V16.3818ZM59.4 15.0462V7.28198C59.4 3.58873 56.3277 0.6 52.5708 0.6H7.42924C3.67227 0.6 0.6 3.58873 0.6 7.28198V15.0462V44.718C0.6 48.4118 3.67229 51.4 7.42924 51.4H52.5708C56.3277 51.4 59.4 48.4118 59.4 44.718V15.0462ZM13.9303 8.54391C13.9303 10.4056 15.4781 11.9048 17.3606 11.9048C19.2437 11.9048 20.7909 10.4056 20.7909 8.54391C20.7909 6.68168 19.2436 5.18305 17.3606 5.18305C15.4781 5.18305 13.9303 6.68164 13.9303 8.54391ZM16.6454 8.54391C16.6454 8.17269 16.9581 7.85427 17.3606 7.85427C17.7635 7.85427 18.0758 8.17257 18.0758 8.54391C18.0758 8.91525 17.7635 9.23354 17.3606 9.23354C16.9581 9.23354 16.6454 8.91513 16.6454 8.54391ZM4.61988 8.51519C4.61988 10.3774 6.16713 11.8761 8.05016 11.8761C9.93318 11.8761 11.4804 10.3774 11.4804 8.51519C11.4804 6.65297 9.93318 5.15433 8.05016 5.15433C6.16713 5.15433 4.61988 6.65297 4.61988 8.51519ZM7.33498 8.51519C7.33498 8.14437 7.64778 7.82556 8.05016 7.82556C8.45293 7.82556 8.76533 8.14425 8.76533 8.51519C8.76533 8.88654 8.45306 9.20483 8.05016 9.20483C7.64766 9.20483 7.33498 8.88641 7.33498 8.51519ZM23.2413 8.5721C23.2413 10.4343 24.7885 11.933 26.671 11.933C28.5541 11.933 30.1013 10.4343 30.1013 8.5721C30.1013 6.71035 28.554 5.21176 26.671 5.21176C24.7885 5.21176 23.2413 6.7104 23.2413 8.5721ZM25.9564 8.5721C25.9564 8.20064 26.2688 7.88247 26.671 7.88247C27.0739 7.88247 27.3862 8.20076 27.3862 8.5721C27.3862 8.94345 27.0739 9.26174 26.671 9.26174C26.2688 9.26174 25.9564 8.94357 25.9564 8.5721Z" fill="#F5801C" stroke="#F5801C" stroke-width="0.8"/>
</svg>
